<svg width="16" height="17" viewBox="0 0 16 17" fill="none" xmlns="http://www.w3.org/2000/svg">
<path d="M9.85907 10.3895C10.3613 9.88728 10.6124 9.28125 10.6124 8.57143C10.6124 7.86161 10.3613 7.25558 9.85907 6.75335C9.35684 6.25112 8.75082 6 8.04099 6C7.33117 6 6.72515 6.25112 6.22291 6.75335C5.72068 7.25558 5.46957 7.86161 5.46957 8.57143C5.46957 9.28125 5.72068 9.88728 6.22291 10.3895C6.72515 10.8917 7.33117 11.1429 8.04099 11.1429C8.75082 11.1429 9.35684 10.8917 9.85907 10.3895ZM10.8434 5.76897C11.6135 6.53906 11.9986 7.47321 11.9986 8.57143C11.9986 9.66964 11.6135 10.6038 10.8434 11.3739C10.0734 12.144 9.13921 12.529 8.04099 12.529C6.94278 12.529 6.00863 12.144 5.23854 11.3739C4.46845 10.6038 4.0834 9.66964 4.0834 8.57143C4.0834 7.47321 4.46845 6.53906 5.23854 5.76897C6.00863 4.99888 6.94278 4.61384 8.04099 4.61384C9.13921 4.61384 10.0734 4.99888 10.8434 5.76897ZM12.8122 3.80022C12.993 3.98103 13.0834 4.19866 13.0834 4.45312C13.0834 4.70759 12.993 4.92522 12.8122 5.10603C12.6314 5.28683 12.4138 5.37723 12.1593 5.37723C11.9048 5.37723 11.6872 5.28683 11.5064 5.10603C11.3256 4.92522 11.2352 4.70759 11.2352 4.45312C11.2352 4.19866 11.3256 3.98103 11.5064 3.80022C11.6872 3.61942 11.9048 3.52902 12.1593 3.52902C12.4138 3.52902 12.6314 3.61942 12.8122 3.80022ZM8.80439 2.2433C8.34233 2.2433 8.08787 2.2433 8.04099 2.2433C7.99412 2.2433 7.73631 2.2433 7.26756 2.2433C6.8055 2.23661 6.45394 2.23661 6.21287 2.2433C5.9718 2.2433 5.64702 2.25335 5.23854 2.27344C4.83675 2.28683 4.49189 2.32031 4.20394 2.37388C3.92269 2.42076 3.68497 2.48103 3.49077 2.55469C3.15595 2.68862 2.86131 2.88281 2.60684 3.13728C2.35238 3.39174 2.15818 3.68638 2.02425 4.02121C1.95059 4.2154 1.88698 4.45647 1.8334 4.74442C1.78653 5.02567 1.75305 5.37054 1.73296 5.77902C1.71957 6.1808 1.70952 6.50223 1.70282 6.7433C1.70282 6.98438 1.70282 7.33929 1.70282 7.80804C1.70952 8.27009 1.71287 8.52455 1.71287 8.57143C1.71287 8.6183 1.70952 8.87612 1.70282 9.34487C1.70282 9.80692 1.70282 10.1585 1.70282 10.3996C1.70952 10.6406 1.71957 10.9654 1.73296 11.3739C1.75305 11.7757 1.78653 12.1205 1.8334 12.4085C1.88698 12.6897 1.95059 12.9275 2.02425 13.1217C2.15818 13.4565 2.35238 13.7511 2.60684 14.0056C2.86131 14.26 3.15595 14.4542 3.49077 14.5882C3.68497 14.6618 3.92269 14.7254 4.20394 14.779C4.49189 14.8259 4.83675 14.8594 5.23854 14.8795C5.64702 14.8929 5.9718 14.9029 6.21287 14.9096C6.45394 14.9096 6.8055 14.9096 7.26756 14.9096C7.73631 14.9029 7.99412 14.8996 8.04099 14.8996C8.08787 14.8996 8.34233 14.9029 8.80439 14.9096C9.27314 14.9096 9.62805 14.9096 9.86912 14.9096C10.1102 14.9029 10.4316 14.8929 10.8334 14.8795C11.2419 14.8594 11.5868 14.8259 11.868 14.779C12.1559 14.7254 12.397 14.6618 12.5912 14.5882C12.926 14.4542 13.2207 14.26 13.4751 14.0056C13.7296 13.7511 13.9238 13.4565 14.0577 13.1217C14.1314 12.9275 14.1917 12.6897 14.2385 12.4085C14.2921 12.1205 14.3256 11.7757 14.339 11.3739C14.3591 10.9654 14.3691 10.6406 14.3691 10.3996C14.3758 10.1585 14.3758 9.80692 14.3691 9.34487C14.3691 8.87612 14.3691 8.6183 14.3691 8.57143C14.3691 8.52455 14.3691 8.27009 14.3691 7.80804C14.3758 7.33929 14.3758 6.98438 14.3691 6.7433C14.3691 6.50223 14.3591 6.1808 14.339 5.77902C14.3256 5.37054 14.2921 5.02567 14.2385 4.74442C14.1917 4.45647 14.1314 4.2154 14.0577 4.02121C13.9238 3.68638 13.7296 3.39174 13.4751 3.13728C13.2207 2.88281 12.926 2.68862 12.5912 2.55469C12.397 2.48103 12.1559 2.42076 11.868 2.37388C11.5868 2.32031 11.2419 2.28683 10.8334 2.27344C10.4316 2.25335 10.1102 2.2433 9.86912 2.2433C9.62805 2.23661 9.27314 2.23661 8.80439 2.2433ZM15.7051 5.38728C15.7385 5.97656 15.7553 7.03795 15.7553 8.57143C15.7553 10.1049 15.7385 11.1663 15.7051 11.7556C15.6381 13.1484 15.2229 14.2266 14.4595 14.99C13.6961 15.7533 12.618 16.1685 11.2251 16.2355C10.6359 16.269 9.57448 16.2857 8.04099 16.2857C6.50751 16.2857 5.44613 16.269 4.85684 16.2355C3.46398 16.1685 2.38586 15.7533 1.62247 14.99C0.859074 14.2266 0.443895 13.1484 0.376931 11.7556C0.343449 11.1663 0.326708 10.1049 0.326708 8.57143C0.326708 7.03795 0.343449 5.97656 0.376931 5.38728C0.443895 3.99442 0.859074 2.91629 1.62247 2.1529C2.38586 1.38951 3.46398 0.97433 4.85684 0.907366C5.44613 0.873884 6.50751 0.857143 8.04099 0.857143C9.57448 0.857143 10.6359 0.873884 11.2251 0.907366C12.618 0.97433 13.6961 1.38951 14.4595 2.1529C15.2229 2.91629 15.6381 3.99442 15.7051 5.38728Z" fill="#999999"/>
</svg>
