<svg width="24" height="15" viewBox="0 0 24 15" fill="none" xmlns="http://www.w3.org/2000/svg">
<path d="M14.9459 7.74219C14.9459 9.13504 14.6546 10.3772 14.072 11.4688C13.4894 12.5536 12.6591 13.4007 11.5809 14.01C10.5028 14.6261 9.26731 14.9342 7.87445 14.9342C6.87669 14.9342 5.92244 14.74 5.01173 14.3516C4.10102 13.9632 3.31753 13.4408 2.66128 12.7846C2.00503 12.1283 1.48271 11.3449 1.09432 10.4342C0.705927 9.52344 0.51173 8.5692 0.51173 7.57143C0.51173 6.57366 0.705927 5.61942 1.09432 4.70871C1.48271 3.79799 2.00503 3.01451 2.66128 2.35826C3.31753 1.70201 4.10102 1.17969 5.01173 0.791294C5.92244 0.402902 6.87669 0.208706 7.87445 0.208706C9.78963 0.208706 11.4336 0.851562 12.8064 2.13728L10.8075 4.0558C10.024 3.29911 9.04633 2.92076 7.87445 2.92076C7.05079 2.92076 6.2874 3.12835 5.58428 3.54353C4.88785 3.95871 4.33539 4.52455 3.92691 5.24107C3.51843 5.95089 3.31419 6.72768 3.31419 7.57143C3.31419 8.41518 3.51843 9.19531 3.92691 9.91183C4.33539 10.6217 4.88785 11.1842 5.58428 11.5993C6.2874 12.0145 7.05079 12.2221 7.87445 12.2221C8.43026 12.2221 8.93919 12.1451 9.40124 11.9911C9.86999 11.8371 10.255 11.6462 10.5564 11.4185C10.8577 11.1842 11.1189 10.9196 11.3399 10.625C11.5675 10.3304 11.7316 10.0525 11.832 9.79129C11.9392 9.53013 12.0128 9.28237 12.053 9.04799H7.87445V6.51674H14.8253C14.9057 6.93862 14.9459 7.3471 14.9459 7.74219ZM23.6546 6.51674V8.62612H21.5553V10.7254H19.4459V8.62612H17.3466V6.51674H19.4459V4.41741H21.5553V6.51674H23.6546Z" fill="#999999"/>
</svg>
