<svg width="17" height="13" viewBox="0 0 17 13" fill="none" xmlns="http://www.w3.org/2000/svg">
<path d="M16.4792 1.66964C16.0305 2.32589 15.4881 2.88504 14.8519 3.3471C14.8586 3.44085 14.862 3.58147 14.862 3.76897C14.862 4.63951 14.7347 5.51004 14.4803 6.38058C14.2258 7.24442 13.8374 8.07478 13.3151 8.87165C12.7995 9.66853 12.1834 10.375 11.4669 10.9911C10.7504 11.6004 9.88653 12.0893 8.87537 12.4576C7.86421 12.8192 6.78274 13 5.63095 13C3.81622 13 2.15551 12.5145 0.648811 11.5435C0.883185 11.5703 1.14435 11.5837 1.43229 11.5837C2.93899 11.5837 4.28162 11.1217 5.46019 10.1975C4.75707 10.1842 4.12761 9.96987 3.5718 9.55469C3.016 9.13281 2.6343 8.5971 2.42671 7.94754C2.64769 7.98103 2.85194 7.99777 3.03944 7.99777C3.32738 7.99777 3.61198 7.96094 3.89323 7.88728C3.14323 7.73326 2.52046 7.36161 2.02493 6.77232C1.53609 6.17634 1.29167 5.48661 1.29167 4.70312V4.66295C1.74702 4.91741 2.23586 5.05469 2.75819 5.07478C2.31622 4.78013 1.96466 4.39509 1.7035 3.91964C1.44234 3.4442 1.31176 2.92857 1.31176 2.37277C1.31176 1.78348 1.45908 1.23772 1.75372 0.735491C2.56399 1.73326 3.54836 2.53348 4.70685 3.13616C5.87202 3.73214 7.11756 4.06362 8.44345 4.13058C8.38988 3.87612 8.3631 3.62835 8.3631 3.38728C8.3631 2.48995 8.67783 1.72656 9.30729 1.0971C9.94345 0.460938 10.7102 0.142857 11.6075 0.142857C12.545 0.142857 13.3352 0.484375 13.9781 1.16741C14.708 1.02679 15.3943 0.765625 16.0372 0.383928C15.7894 1.15402 15.314 1.75 14.6109 2.17188C15.2336 2.10491 15.8564 1.9375 16.4792 1.66964Z" fill="#999999"/>
</svg>
