<svg width="16" height="17" viewBox="0 0 16 17" fill="none" xmlns="http://www.w3.org/2000/svg">
<path d="M12.8189 0.857143C13.6158 0.857143 14.2955 1.14174 14.858 1.71094C15.4272 2.27344 15.7118 2.95313 15.7118 3.75V13.3929C15.7118 14.1897 15.4272 14.8694 14.858 15.4319C14.2955 16.0011 13.6158 16.2857 12.8189 16.2857H10.9305V10.3092H12.9294L13.2307 7.97879H10.9305V6.49219C10.9305 6.11719 11.0075 5.83594 11.1615 5.64844C11.3223 5.46094 11.6303 5.36719 12.0856 5.36719L13.3111 5.35714V3.2779C12.8892 3.21763 12.2932 3.1875 11.5231 3.1875C10.6124 3.1875 9.88252 3.45536 9.33341 3.99107C8.791 4.52679 8.5198 5.28348 8.5198 6.26116V7.97879H6.51087V10.3092H8.5198V16.2857H3.17605C2.37917 16.2857 1.69614 16.0011 1.12694 15.4319C0.56444 14.8694 0.28319 14.1897 0.28319 13.3929V3.75C0.28319 2.95313 0.56444 2.27344 1.12694 1.71094C1.69614 1.14174 2.37917 0.857143 3.17605 0.857143H12.8189Z" fill="#999999"/>
</svg>
