<svg width="16" height="15" viewBox="0 0 16 15" fill="none" xmlns="http://www.w3.org/2000/svg">
<path d="M3.78879 4.84933V14.8036H0.474053V4.84933H3.78879ZM3.99972 1.77567C4.00642 2.26451 3.83566 2.67299 3.48745 3.00112C3.14593 3.32924 2.69392 3.4933 2.13142 3.4933H2.11133C1.56222 3.4933 1.12026 3.32924 0.785437 3.00112C0.450616 2.67299 0.283205 2.26451 0.283205 1.77567C0.283205 1.28013 0.453964 0.871652 0.795482 0.550223C1.1437 0.222098 1.5957 0.0580353 2.15151 0.0580353C2.70731 0.0580353 3.15262 0.222098 3.48745 0.550223C3.82227 0.871652 3.99303 1.28013 3.99972 1.77567ZM15.7118 9.09821V14.8036H12.4071V9.47991C12.4071 8.77679 12.2698 8.22768 11.9953 7.83259C11.7274 7.4308 11.3055 7.22991 10.7296 7.22991C10.3078 7.22991 9.95285 7.3471 9.6649 7.58147C9.38365 7.80915 9.17271 8.09375 9.03209 8.43527C8.95843 8.63616 8.9216 8.90737 8.9216 9.24888V14.8036H5.61691C5.6303 12.1317 5.637 9.9654 5.637 8.30469C5.637 6.64397 5.63365 5.6529 5.62696 5.33147L5.61691 4.84933H8.9216V6.29576H8.90151C9.03544 6.08147 9.17271 5.89397 9.31334 5.73326C9.45396 5.57254 9.64146 5.39844 9.87584 5.21094C10.1169 5.02344 10.4082 4.87946 10.7497 4.77902C11.0979 4.67187 11.483 4.6183 11.9049 4.6183C13.0499 4.6183 13.9707 5 14.6671 5.76339C15.3636 6.52009 15.7118 7.6317 15.7118 9.09821Z" fill="#999999"/>
</svg>
