<svg width="19" height="13" viewBox="0 0 19 13" fill="none" xmlns="http://www.w3.org/2000/svg">
<path d="M8.09823 8.90179L12.9598 6.39062L8.09823 3.84933V8.90179ZM9.95649 0.243303C11.0815 0.243303 12.1663 0.260045 13.211 0.293527C14.2623 0.320313 15.0324 0.350447 15.5212 0.383928L16.2545 0.424107C16.2612 0.424107 16.3181 0.430804 16.4252 0.444197C16.5324 0.450892 16.6094 0.460938 16.6563 0.474331C16.7031 0.481027 16.7802 0.494419 16.8873 0.514509C17.0011 0.534598 17.0982 0.561384 17.1786 0.594866C17.2589 0.628348 17.3527 0.671875 17.4598 0.725447C17.567 0.779018 17.6708 0.845982 17.7712 0.92634C17.8717 1 17.9688 1.08705 18.0625 1.1875C18.1027 1.22768 18.1529 1.2913 18.2132 1.37835C18.2802 1.45871 18.3772 1.6529 18.5045 1.96094C18.6384 2.26897 18.7288 2.60714 18.7757 2.97545C18.8293 3.40402 18.8694 3.86272 18.8962 4.35156C18.9297 4.83371 18.9498 5.21205 18.9565 5.48661V5.88839V7.25446C18.9632 8.22545 18.9029 9.19643 18.7757 10.1674C18.7288 10.5357 18.6451 10.8705 18.5246 11.1719C18.404 11.4665 18.2969 11.6708 18.2031 11.7846L18.0625 11.9554C17.9688 12.0558 17.8717 12.1462 17.7712 12.2266C17.6708 12.3002 17.567 12.3638 17.4598 12.4174C17.3527 12.4643 17.2589 12.5045 17.1786 12.5379C17.0982 12.5714 17.0011 12.5982 16.8873 12.6183C16.7802 12.6384 16.6998 12.6551 16.6462 12.6685C16.5993 12.6752 16.5223 12.6853 16.4152 12.6987C16.3147 12.7054 16.2612 12.7087 16.2545 12.7087C14.5737 12.8359 12.4743 12.8996 9.95649 12.8996C8.57033 12.8862 7.36497 12.8661 6.34042 12.8393C5.32256 12.8058 4.65292 12.779 4.33149 12.7589L3.8393 12.7188L3.47769 12.6786C3.23662 12.6451 3.05247 12.6116 2.92524 12.5781C2.8047 12.5446 2.63394 12.4743 2.41296 12.3672C2.19868 12.26 2.01118 12.1228 1.85046 11.9554C1.81028 11.9152 1.75671 11.8549 1.68975 11.7746C1.62948 11.6875 1.53238 11.49 1.39845 11.1819C1.27122 10.8739 1.18417 10.5357 1.13729 10.1674C1.08372 9.73884 1.04019 9.28348 1.00671 8.80134C0.979927 8.3125 0.963186 7.9308 0.95649 7.65625V7.25446V5.88839C0.949793 4.91741 1.01006 3.94643 1.13729 2.97545C1.18417 2.60714 1.26787 2.27567 1.38841 1.98103C1.50894 1.67969 1.61609 1.4721 1.70984 1.35826L1.85046 1.1875C1.94421 1.08705 2.04131 1 2.14176 0.92634C2.2422 0.845982 2.346 0.779018 2.45314 0.725447C2.56028 0.671875 2.65403 0.628348 2.73439 0.594866C2.81475 0.561384 2.9085 0.534598 3.01564 0.514509C3.12948 0.494419 3.20984 0.481027 3.25671 0.474331C3.30359 0.460938 3.3806 0.450892 3.48774 0.444197C3.59488 0.430804 3.6518 0.424107 3.6585 0.424107C5.3393 0.303572 7.43863 0.243303 9.95649 0.243303Z" fill="#999999"/>
</svg>
