<svg width="18" height="18" viewBox="0 0 18 18" fill="none" xmlns="http://www.w3.org/2000/svg">
<path d="M11.0173 10.8772C11.5753 10.3192 11.8544 9.64583 11.8544 8.85714C11.8544 8.06845 11.5753 7.39509 11.0173 6.83705C10.4593 6.27902 9.7859 6 8.99721 6C8.20852 6 7.53516 6.27902 6.97712 6.83705C6.41908 7.39509 6.14007 8.06845 6.14007 8.85714C6.14007 9.64583 6.41908 10.3192 6.97712 10.8772C7.53516 11.4353 8.20852 11.7143 8.99721 11.7143C9.7859 11.7143 10.4593 11.4353 11.0173 10.8772ZM12.111 5.7433C12.9667 6.59896 13.3945 7.6369 13.3945 8.85714C13.3945 10.0774 12.9667 11.1153 12.111 11.971C11.2554 12.8266 10.2174 13.2545 8.99721 13.2545C7.77697 13.2545 6.73903 12.8266 5.88337 11.971C5.02772 11.1153 4.59989 10.0774 4.59989 8.85714C4.59989 7.6369 5.02772 6.59896 5.88337 5.7433C6.73903 4.88765 7.77697 4.45982 8.99721 4.45982C10.2174 4.45982 11.2554 4.88765 12.111 5.7433ZM14.2985 3.5558C14.4994 3.7567 14.5999 3.99851 14.5999 4.28125C14.5999 4.56399 14.4994 4.8058 14.2985 5.0067C14.0977 5.20759 13.8558 5.30804 13.5731 5.30804C13.2904 5.30804 13.0485 5.20759 12.8477 5.0067C12.6468 4.8058 12.5463 4.56399 12.5463 4.28125C12.5463 3.99851 12.6468 3.7567 12.8477 3.5558C13.0485 3.35491 13.2904 3.25446 13.5731 3.25446C13.8558 3.25446 14.0977 3.35491 14.2985 3.5558ZM9.84542 1.82589C9.33203 1.82589 9.04929 1.82589 8.99721 1.82589C8.94513 1.82589 8.65867 1.82589 8.13783 1.82589C7.62444 1.81845 7.23382 1.81845 6.96596 1.82589C6.6981 1.82589 6.33724 1.83705 5.88337 1.85938C5.43694 1.87426 5.05376 1.91146 4.73382 1.97098C4.42132 2.02307 4.15718 2.09003 3.94141 2.17188C3.56938 2.32068 3.242 2.53646 2.95926 2.8192C2.67653 3.10193 2.46075 3.42932 2.31194 3.80134C2.2301 4.01711 2.15941 4.28497 2.09989 4.60491C2.04781 4.91741 2.0106 5.3006 1.98828 5.75446C1.9734 6.20089 1.96224 6.55804 1.9548 6.82589C1.9548 7.09375 1.9548 7.4881 1.9548 8.00893C1.96224 8.52232 1.96596 8.80506 1.96596 8.85714C1.96596 8.90923 1.96224 9.19568 1.9548 9.71652C1.9548 10.2299 1.9548 10.6205 1.9548 10.8884C1.96224 11.1562 1.9734 11.5171 1.98828 11.971C2.0106 12.4174 2.04781 12.8006 2.09989 13.1205C2.15941 13.433 2.2301 13.6972 2.31194 13.9129C2.46075 14.285 2.67653 14.6124 2.95926 14.8951C3.242 15.1778 3.56938 15.3936 3.94141 15.5424C4.15718 15.6243 4.42132 15.6949 4.73382 15.7545C5.05376 15.8065 5.43694 15.8438 5.88337 15.8661C6.33724 15.881 6.6981 15.8921 6.96596 15.8996C7.23382 15.8996 7.62444 15.8996 8.13783 15.8996C8.65867 15.8921 8.94513 15.8884 8.99721 15.8884C9.04929 15.8884 9.33203 15.8921 9.84542 15.8996C10.3663 15.8996 10.7606 15.8996 11.0285 15.8996C11.2963 15.8921 11.6535 15.881 12.0999 15.8661C12.5538 15.8438 12.9369 15.8065 13.2494 15.7545C13.5694 15.6949 13.8372 15.6243 14.053 15.5424C14.425 15.3936 14.7524 15.1778 15.0352 14.8951C15.3179 14.6124 15.5337 14.285 15.6825 13.9129C15.7643 13.6972 15.8313 13.433 15.8834 13.1205C15.9429 12.8006 15.9801 12.4174 15.995 11.971C16.0173 11.5171 16.0285 11.1562 16.0285 10.8884C16.0359 10.6205 16.0359 10.2299 16.0285 9.71652C16.0285 9.19568 16.0285 8.90923 16.0285 8.85714C16.0285 8.80506 16.0285 8.52232 16.0285 8.00893C16.0359 7.4881 16.0359 7.09375 16.0285 6.82589C16.0285 6.55804 16.0173 6.20089 15.995 5.75446C15.9801 5.3006 15.9429 4.91741 15.8834 4.60491C15.8313 4.28497 15.7643 4.01711 15.6825 3.80134C15.5337 3.42932 15.3179 3.10193 15.0352 2.8192C14.7524 2.53646 14.425 2.32068 14.053 2.17188C13.8372 2.09003 13.5694 2.02307 13.2494 1.97098C12.9369 1.91146 12.5538 1.87426 12.0999 1.85938C11.6535 1.83705 11.2963 1.82589 11.0285 1.82589C10.7606 1.81845 10.3663 1.81845 9.84542 1.82589ZM17.5128 5.3192C17.55 5.97396 17.5686 7.15327 17.5686 8.85714C17.5686 10.561 17.55 11.7403 17.5128 12.3951C17.4384 13.9427 16.9771 15.1406 16.1289 15.9888C15.2807 16.8371 14.0828 17.2984 12.5352 17.3728C11.8804 17.41 10.7011 17.4286 8.99721 17.4286C7.29334 17.4286 6.11403 17.41 5.45926 17.3728C3.91164 17.2984 2.71373 16.8371 1.86551 15.9888C1.0173 15.1406 0.55599 13.9427 0.481585 12.3951C0.444382 11.7403 0.425781 10.561 0.425781 8.85714C0.425781 7.15327 0.444382 5.97396 0.481585 5.3192C0.55599 3.77158 1.0173 2.57366 1.86551 1.72545C2.71373 0.877232 3.91164 0.415922 5.45926 0.341518C6.11403 0.304316 7.29334 0.285715 8.99721 0.285715C10.7011 0.285715 11.8804 0.304316 12.5352 0.341518C14.0828 0.415922 15.2807 0.877232 16.1289 1.72545C16.9771 2.57366 17.4384 3.77158 17.5128 5.3192Z" fill="white"/>
</svg>
