<svg width="18" height="18" viewBox="0 0 18 18" fill="none" xmlns="http://www.w3.org/2000/svg">
<path d="M14.3544 0.285715C15.2398 0.285715 15.995 0.601934 16.62 1.23438C17.2524 1.85938 17.5686 2.61458 17.5686 3.5V14.2143C17.5686 15.0997 17.2524 15.8549 16.62 16.4799C15.995 17.1124 15.2398 17.4286 14.3544 17.4286H12.2561V10.7879H14.4771L14.8119 8.19866H12.2561V6.54688C12.2561 6.13021 12.3417 5.81771 12.5128 5.60938C12.6914 5.40104 13.0337 5.29688 13.5396 5.29688L14.9012 5.28571V2.97545C14.4325 2.90848 13.7703 2.875 12.9146 2.875C11.9027 2.875 11.0917 3.17262 10.4816 3.76786C9.87891 4.3631 9.57757 5.20387 9.57757 6.29018V8.19866H7.34542V10.7879H9.57757V17.4286H3.64007C2.75465 17.4286 1.99572 17.1124 1.36328 16.4799C0.738281 15.8549 0.425781 15.0997 0.425781 14.2143V3.5C0.425781 2.61458 0.738281 1.85938 1.36328 1.23438C1.99572 0.601934 2.75465 0.285715 3.64007 0.285715H14.3544Z" fill="white"/>
</svg>
