<svg width="19" height="15" viewBox="0 0 19 15" fill="none" xmlns="http://www.w3.org/2000/svg">
<path d="M18.2932 2.41071C17.7947 3.13988 17.1921 3.76116 16.4852 4.27455C16.4927 4.37872 16.4964 4.53497 16.4964 4.7433C16.4964 5.71057 16.355 6.67783 16.0723 7.64509C15.7895 8.60491 15.358 9.52753 14.7776 10.4129C14.2047 11.2984 13.5202 12.0833 12.7241 12.7679C11.9279 13.4449 10.9681 13.9881 9.84459 14.3973C8.72108 14.7991 7.51944 15 6.23968 15C4.22331 15 2.37807 14.4606 0.703962 13.3817C0.964379 13.4115 1.25456 13.4263 1.5745 13.4263C3.2486 13.4263 4.74042 12.9129 6.04994 11.8862C5.26869 11.8713 4.56929 11.6332 3.95173 11.1719C3.33417 10.7031 2.91006 10.1079 2.67941 9.38616C2.92494 9.42336 3.15188 9.44196 3.36021 9.44196C3.68015 9.44196 3.99637 9.40104 4.30887 9.3192C3.47554 9.14807 2.78358 8.73512 2.23298 8.08036C1.68983 7.41815 1.41825 6.65179 1.41825 5.78125V5.73661C1.9242 6.01935 2.46735 6.17188 3.04771 6.1942C2.55664 5.86682 2.16602 5.43899 1.87584 4.91071C1.58566 4.38244 1.44057 3.80952 1.44057 3.19196C1.44057 2.5372 1.60426 1.9308 1.93164 1.37277C2.83194 2.4814 3.92569 3.37054 5.21289 4.04018C6.50753 4.70238 7.89146 5.07068 9.36468 5.14509C9.30515 4.86235 9.27539 4.58705 9.27539 4.3192C9.27539 3.32217 9.62509 2.47396 10.3245 1.77455C11.0313 1.06771 11.8833 0.714285 12.8803 0.714285C13.922 0.714285 14.7999 1.09375 15.5142 1.85268C16.3252 1.69643 17.0879 1.40625 17.8022 0.982143C17.5269 1.8378 16.9986 2.5 16.2174 2.96875C16.9093 2.89435 17.6013 2.70833 18.2932 2.41071Z" fill="white"/>
</svg>
